<?xml version="1.0" encoding="utf-8"?>
<!-- Generator: Adobe Illustrator 26.0.3, SVG Export Plug-In . SVG Version: 6.00 Build 0)  -->
<svg version="1.1" id="Слой_1" xmlns="http://www.w3.org/2000/svg" xmlns:xlink="http://www.w3.org/1999/xlink" x="0px" y="0px"
	 viewBox="0 0 353.16 327.17" style="enable-background:new 0 0 353.16 327.17;" xml:space="preserve">
<style type="text/css">
	.st0{fill-rule:evenodd;clip-rule:evenodd;fill:#FFFFFF;stroke:#020202;stroke-miterlimit:10;}
	.st1{fill:#FFFFFF;stroke:#020202;stroke-miterlimit:10;}
</style>
<path class="st0" d="M37.13,246.45l25.17-5.34l7.62,37.68l-25.17,5.34L37.13,246.45z"/>
<path class="st1" d="M344.73,208.58c-1.26-15.66-8.57-33.86-23.18-51.38c-9.38-14.08-18.79-29.8-19.68-45.4
	c0.06-4.35,2.61-8.4,6.1-12.46c8.6-8.81,7.52-14.95-5.33-13.25c-27.78,3.87-55.16,8.6-62.04,25.49c-3.88,7.32-6.69,24.36-5.45,31.46
	c3.3,16.1,8.9,25.12,18.66,41.34c-0.13,0.05-0.26,0.11-0.39,0.16c16.59,23.89,15.54,42.69,3.53,60.29l-78.65-49.09l27.01-44.18
	l-20.66-13.25l-27.17,44.44l-0.08-0.05L93.74,282.79l-63.52,15l5.62,24.97l68.36-16.14l-0.03-0.11l138.15-32.1
	c35.44-6.89,83.73-18.41,100.99-22.87c1.08-8.45,2.7-17.26,3.18-25.56C346.97,219.6,345.3,215.08,344.73,208.58z"/>
<path class="st0" d="M44.72,183.95c19.76,0,35.78,16.41,35.78,36.64c0,20.24-16.02,36.64-35.78,36.64
	c-19.76,0-35.78-16.41-35.78-36.64C8.94,200.36,24.96,183.95,44.72,183.95z"/>
<path class="st0" d="M119.53,92.76c67.15-1.92,41.67,82.46,12.09,100.19c-14.07-24.04,58.46-77.61-9.64-87.79
	c-39.83,20.81,15.76,56.61,3.91,19.08c23.51-14.46,24.45,35.3-12.83,29.55C88.31,139.42,90.08,101.87,119.53,92.76z"/>
<path class="st1" d="M75.51,162.52l-8.26-10.68l-12.09,5.67l7.36-11.34l-9-10.02l12.81,3.67l6.53-11.87l0.55,13.61l13.04,2.69
	l-12.46,4.74L75.51,162.52z"/>
<path class="st1" d="M98.45,96.23l-7.53-9.74l-11.03,5.18l6.72-10.35l-8.22-9.15l11.69,3.35l5.95-10.83l0.5,12.42l11.9,2.45
	l-11.37,4.33L98.45,96.23z"/>
<path class="st1" d="M147.47,60.68l-9.32-12.05l-13.64,6.4l8.31-12.8l-10.16-11.31l14.45,4.14l7.36-13.39l0.62,15.35l14.71,3.03
	l-14.06,5.35L147.47,60.68z"/>
<path class="st1" d="M243.98,85.33l-7.89-10.2l-11.55,5.42l7.03-10.83l-8.6-9.57l12.23,3.5l6.23-11.33l0.53,13l12.45,2.57
	l-11.91,4.53L243.98,85.33z"/>
<path class="st1" d="M174.38,91.34l-8.49-10.98l-12.43,5.83l7.57-11.66l-9.26-10.3L164.94,68l6.71-12.2l0.57,13.99l13.4,2.76
	l-12.81,4.88L174.38,91.34z"/>
<path class="st1" d="M263.22,40.97l-9.21-11.91l-13.48,6.32l8.21-12.65L238.7,11.57l14.28,4.09l7.28-13.23l0.62,15.17l14.54,3
	l-13.9,5.29L263.22,40.97z"/>
<path class="st1" d="M209.17,114.53l-8.74-11.3l-12.8,6l7.79-12.01l-9.53-10.61l13.56,3.88l6.91-12.56l0.59,14.41l13.8,2.85
	l-13.2,5.02L209.17,114.53z"/>
<path class="st1" d="M100.96,197.2l-8.48-10.96l-12.41,5.82l7.56-11.64l-9.24-10.29l13.15,3.76l6.7-12.18l0.57,13.97l13.38,2.76
	l-12.8,4.87L100.96,197.2z"/>
<path class="st1" d="M208.4,52.33l-9.32-12.05l-13.64,6.4l8.31-12.8l-10.16-11.31l14.45,4.14l7.36-13.39l0.62,15.36l14.71,3.04
	l-14.07,5.35L208.4,52.33z"/>
</svg>
