<?xml version="1.0" encoding="utf-8"?>
<!-- Generator: Adobe Illustrator 26.0.3, SVG Export Plug-In . SVG Version: 6.00 Build 0)  -->
<svg version="1.1" id="Слой_1" xmlns="http://www.w3.org/2000/svg" xmlns:xlink="http://www.w3.org/1999/xlink" x="0px" y="0px"
	 viewBox="0 0 353.2 327.2" style="enable-background:new 0 0 353.2 327.2;" xml:space="preserve">
<style type="text/css">
	.st0{fill-rule:evenodd;clip-rule:evenodd;}
</style>
<path class="st0" d="M252.8,181.5c24-9.2,46.3-19.8,68.4-27.2c15.6,17,23.3,34.8,24.6,50.1c0.6,6.2,2.3,10.5,1.8,16.6
	c-0.5,7.9-2.1,16.3-3.2,24.3c-21.2,5.1-88.4,20-123.1,25.2C260,242.9,280.5,218.7,252.8,181.5z"/>
<path class="st0" d="M239.8,112c7-16.1,34.9-20.6,63.2-24.3c13.1-1.6,14.2,4.2,5.4,12.6c-3.6,3.9-6.1,7.7-6.2,11.9
	c1,17.3,13.9,34.7,24.7,49.7c6.2,8.2-0.1,13.6-8.2,14.7c-18.6,1.5-27.7,9.4-43.6,16.5c-7.5,3.7-16.7-1.9-20.1-9
	c-11-17.2-17.2-25.9-20.8-42.1C232.9,135.2,235.8,119,239.8,112z"/>
<path class="st0" d="M32.5,240.4l25.6-5.1l7.8,35.9l-25.6,5.1L32.5,240.4z"/>
<path class="st0" d="M95.1,273.9l5.7,23.8l-69.6,15.4l-5.7-23.8L95.1,273.9z"/>
<path class="st0" d="M181.8,137.5l21,12.6l-43.2,66.1l-21-12.6L181.8,137.5z"/>
<path d="M155,179.7L287.5,257L70.3,304.2L155,179.7z"/>
<path class="st0" d="M40.2,180.9c20.1,0,36.5,15.6,36.5,34.9s-16.3,34.9-36.5,34.9S3.8,235.1,3.8,215.8
	C3.8,196.5,20.1,180.9,40.2,180.9z"/>
<path class="st0" d="M116.4,94.1c68.4-1.8,42.4,78.5,12.3,95.4c-14.3-22.9,59.6-73.9-9.8-83.6c-40.6,19.8,16,53.9,4,18.2
	c23.9-13.8,24.9,33.6-13.1,28.1C84.6,138.5,86.4,102.8,116.4,94.1z"/>
<path d="M71.6,160.5l-8.4-10.2l-12.3,5.4l7.5-10.8l-9.2-9.5l13,3.5l6.6-11.3l0.6,12.9l13.3,2.6L70,147.6L71.6,160.5z"/>
<path d="M95,97.4l-7.7-9.3l-11.2,4.9l6.8-9.8l-8.4-8.7l11.9,3.2l6.1-10.3L93,79.2l12.1,2.3l-11.6,4.1L95,97.4z"/>
<path d="M144.9,63.6l-9.5-11.5l-13.9,6.1L130,46l-10.3-10.8l14.7,3.9l7.5-12.7l0.6,14.6l15,2.9L143.1,49L144.9,63.6z"/>
<path d="M243.2,87l-8-9.7l-11.8,5.2l7.2-10.3l-8.8-9.1l12.5,3.3l6.4-10.8l0.5,12.4l12.7,2.4l-12.1,4.3L243.2,87z"/>
<path d="M172.3,92.8l-8.6-10.4L151,87.9l7.7-11.1l-9.4-9.8l13.4,3.6l6.8-11.6l0.6,13.3l13.6,2.6l-13.1,4.6L172.3,92.8z"/>
<path d="M262.8,44.8l-9.4-11.3l-13.7,6l8.4-12l-10.2-10.6l14.6,3.9l7.4-12.6l0.6,14.4l14.8,2.9l-14.2,5L262.8,44.8z"/>
<path d="M207.8,114.8l-8.9-10.8l-13,5.7l7.9-11.4l-9.7-10.1l13.8,3.7l7-12l0.6,13.7l14.1,2.7l-13.4,4.8L207.8,114.8z"/>
<path d="M97.5,193.5l-8.6-10.4l-12.6,5.5l7.7-11.1l-9.4-9.8l13.4,3.6l6.8-11.6l0.6,13.3l13.6,2.6l-13,4.6L97.5,193.5z"/>
<path d="M207,55.6l-9.5-11.5l-13.9,6.1l8.5-12.2l-10.4-10.8l14.7,3.9l7.5-12.8l0.6,14.6l15,2.9l-14.3,5.1L207,55.6z"/>
</svg>
