<?xml version="1.0" encoding="utf-8"?>
<!-- Generator: Adobe Illustrator 26.0.3, SVG Export Plug-In . SVG Version: 6.00 Build 0)  -->
<svg version="1.1" id="Слой_1" xmlns="http://www.w3.org/2000/svg" xmlns:xlink="http://www.w3.org/1999/xlink" x="0px" y="0px"
	 viewBox="0 0 500 500" style="enable-background:new 0 0 500 500;" xml:space="preserve">
<style type="text/css">
	.st0{fill-rule:evenodd;clip-rule:evenodd;fill:#020202;}
	.st1{fill:#020202;}
</style>
<path class="st0" d="M340.42,288.18c24.64-9.89,47.57-21.24,70.22-29.17c16,18.27,23.95,37.35,25.29,53.71
	c0.6,6.65,2.35,11.26,1.84,17.77c-0.5,8.48-2.19,17.48-3.32,26.11c-21.77,5.5-90.78,21.48-126.46,27.01
	C347.82,354.12,368.82,328.1,340.42,288.18z"/>
<path class="st0" d="M327.01,213.65c7.2-17.25,35.84-22.08,64.9-26.04c13.45-1.74,14.58,4.54,5.58,13.53
	c-3.65,4.15-6.32,8.29-6.38,12.73c1.08,18.53,14.24,37.25,25.36,53.29c6.33,8.75-0.15,14.61-8.46,15.77
	c-19.08,1.61-28.41,10.04-44.73,17.66c-7.73,3.92-17.17-2.04-20.64-9.65c-11.33-18.48-17.67-27.77-21.32-45.16
	C320.01,238.54,322.96,221.13,327.01,213.65z"/>
<path class="st0" d="M114.2,351.4l26.33-5.45l7.97,38.48l-26.33,5.45L114.2,351.4z"/>
<path class="st0" d="M178.47,387.36l5.88,25.5l-71.5,16.48l-5.88-25.5L178.47,387.36z"/>
<path class="st0" d="M267.49,240.96l21.61,13.53l-44.4,70.91l-21.61-13.53L267.49,240.96z"/>
<path class="st1" d="M239.99,286.3l136.1,82.94l-223.08,50.61L239.99,286.3z"/>
<path class="st0" d="M122.13,287.57c20.67,0,37.43,16.76,37.43,37.43c0,20.67-16.76,37.43-37.43,37.43
	c-20.67,0-37.43-16.76-37.43-37.43C84.71,304.33,101.46,287.57,122.13,287.57z"/>
<path class="st0" d="M200.39,194.43c70.24-1.96,43.59,84.22,12.64,102.33c-14.72-24.55,61.15-79.27-10.08-89.66
	c-41.66,21.26,16.49,57.82,4.09,19.49c24.59-14.77,25.57,36.06-13.42,30.19C167.73,242.09,169.59,203.73,200.39,194.43z"/>
<path class="st1" d="M154.34,265.68l-8.64-10.9l-12.65,5.79l7.7-11.58l-9.42-10.24l13.4,3.75l6.83-12.12l0.58,13.9l13.64,2.75
	l-13.04,4.84L154.34,265.68z"/>
<path class="st1" d="M178.33,197.98l-7.88-9.95l-11.54,5.29l7.03-10.57l-8.59-9.34l12.22,3.42l6.23-11.06l0.53,12.68l12.44,2.51
	l-11.9,4.42L178.33,197.98z"/>
<path class="st1" d="M229.62,161.67l-9.74-12.3l-14.27,6.54l8.69-13.07l-10.63-11.55l15.11,4.23l7.7-13.67l0.65,15.68l15.38,3.1
	l-14.71,5.47L229.62,161.67z"/>
<path class="st1" d="M330.55,186.84l-8.25-10.42l-12.08,5.53l7.36-11.06l-9-9.78l12.8,3.58l6.52-11.58l0.55,13.28l13.02,2.62
	l-12.45,4.63L330.55,186.84z"/>
<path class="st1" d="M257.75,192.98l-8.88-11.21l-13,5.96l7.92-11.91l-9.68-10.52l13.77,3.85l7.02-12.46l0.59,14.29l14.02,2.82
	l-13.4,4.98L257.75,192.98z"/>
<path class="st1" d="M350.68,141.54l-9.63-12.16l-14.1,6.46l8.59-12.92l-10.5-11.42l14.94,4.18l7.61-13.51l0.64,15.5l15.21,3.06
	l-14.54,5.4L350.68,141.54z"/>
<path class="st1" d="M294.15,216.67l-9.14-11.54l-13.39,6.13l8.15-12.26l-9.97-10.84l14.18,3.96l7.23-12.83l0.61,14.71l14.43,2.91
	l-13.8,5.13L294.15,216.67z"/>
<path class="st1" d="M180.97,301.1l-8.87-11.19l-12.98,5.95l7.91-11.89l-9.67-10.51l13.75,3.85l7.01-12.44l0.59,14.27l14,2.82
	l-13.39,4.97L180.97,301.1z"/>
<path class="st1" d="M293.34,153.14l-9.75-12.31l-14.27,6.54l8.69-13.07l-10.63-11.55l15.12,4.23l7.7-13.68l0.65,15.69l15.39,3.1
	l-14.72,5.47L293.34,153.14z"/>
</svg>
