<?xml version="1.0" encoding="utf-8"?>
<!-- Generator: Adobe Illustrator 26.0.3, SVG Export Plug-In . SVG Version: 6.00 Build 0)  -->
<svg version="1.1" id="Слой_1" xmlns="http://www.w3.org/2000/svg" xmlns:xlink="http://www.w3.org/1999/xlink" x="0px" y="0px"
	 viewBox="0 0 353.16 327.17" style="enable-background:new 0 0 353.16 327.17;" xml:space="preserve">
<style type="text/css">
	.st0{fill-rule:evenodd;clip-rule:evenodd;fill:#FFFFFF;}
	.st1{fill:#FFFFFF;}
</style>
<path class="st0" d="M252.82,181.49c23.99-9.22,46.32-19.79,68.39-27.19c15.58,17.03,23.32,34.81,24.63,50.06
	c0.59,6.19,2.29,10.5,1.79,16.56c-0.49,7.9-2.13,16.29-3.24,24.34c-21.2,5.12-88.41,20.02-123.15,25.17
	C260.03,242.95,280.48,218.7,252.82,181.49z"/>
<path class="st0" d="M239.76,112.03c7.01-16.08,34.9-20.58,63.2-24.27c13.1-1.62,14.2,4.23,5.43,12.61
	c-3.56,3.86-6.15,7.72-6.22,11.86c1.05,17.27,13.86,34.71,24.69,49.67c6.16,8.16-0.14,13.62-8.24,14.69
	c-18.58,1.5-27.67,9.36-43.56,16.46c-7.52,3.66-16.72-1.9-20.1-8.99c-11.04-17.22-17.21-25.88-20.76-42.09
	C232.95,135.22,235.81,119,239.76,112.03z"/>
<path class="st0" d="M32.51,240.42l25.64-5.08l7.76,35.87l-25.64,5.08L32.51,240.42z"/>
<path class="st0" d="M95.1,273.93l5.72,23.77l-69.64,15.36l-5.72-23.77L95.1,273.93z"/>
<path class="st0" d="M181.8,137.48l21.04,12.61l-43.24,66.09l-21.04-12.61L181.8,137.48z"/>
<path class="st1" d="M155.01,179.74l132.54,77.3L70.3,304.21L155.01,179.74z"/>
<path class="st0" d="M40.24,180.92c20.13,0,36.45,15.62,36.45,34.88c0,19.26-16.32,34.88-36.45,34.88
	c-20.13,0-36.45-15.62-36.45-34.88C3.79,196.54,20.11,180.92,40.24,180.92z"/>
<path class="st0" d="M116.45,94.12c68.4-1.83,42.45,78.5,12.31,95.37c-14.33-22.88,59.55-73.88-9.82-83.57
	c-40.58,19.81,16.05,53.89,3.99,18.16c23.94-13.76,24.9,33.61-13.07,28.13C84.64,138.54,86.45,102.79,116.45,94.12z"/>
<path class="st1" d="M71.6,160.52l-8.41-10.16l-12.31,5.4l7.5-10.8l-9.17-9.54l13.05,3.49l6.65-11.3l0.56,12.95l13.28,2.56
	l-12.7,4.51L71.6,160.52z"/>
<path class="st1" d="M94.97,97.42l-7.68-9.27l-11.24,4.93l6.84-9.85l-8.37-8.71l11.9,3.19l6.07-10.31l0.51,11.82l12.12,2.34
	l-11.59,4.12L94.97,97.42z"/>
<path class="st1" d="M144.91,63.58l-9.49-11.47l-13.89,6.09l8.46-12.18l-10.35-10.77l14.72,3.94l7.5-12.74l0.64,14.61l14.98,2.89
	l-14.33,5.09L144.91,63.58z"/>
<path class="st1" d="M243.21,87.04l-8.03-9.71l-11.76,5.16l7.16-10.31l-8.76-9.11l12.46,3.33l6.35-10.79l0.54,12.37l12.68,2.45
	l-12.13,4.31L243.21,87.04z"/>
<path class="st1" d="M172.31,92.76l-8.65-10.45l-12.66,5.55l7.71-11.1l-9.43-9.81l13.41,3.59l6.83-11.61l0.58,13.32l13.65,2.63
	l-13.05,4.64L172.31,92.76z"/>
<path class="st1" d="M262.81,44.82l-9.38-11.33l-13.73,6.02l8.36-12.04l-10.23-10.64l14.55,3.89l7.41-12.6l0.63,14.44l14.81,2.85
	l-14.16,5.03L262.81,44.82z"/>
<path class="st1" d="M207.76,114.84l-8.9-10.76l-13.04,5.72l7.94-11.43l-9.71-10.1l13.81,3.7l7.04-11.96l0.6,13.71l14.06,2.71
	l-13.44,4.78L207.76,114.84z"/>
<path class="st1" d="M97.53,193.54L88.9,183.1l-12.64,5.54l7.7-11.08l-9.42-9.8l13.39,3.58l6.82-11.6l0.58,13.3l13.63,2.63
	l-13.04,4.63L97.53,193.54z"/>
<path class="st1" d="M206.97,55.63l-9.49-11.47l-13.9,6.09l8.46-12.18L181.69,27.3l14.72,3.94l7.5-12.75l0.64,14.62L219.54,36
	l-14.33,5.1L206.97,55.63z"/>
</svg>
