<?xml version="1.0" encoding="utf-8"?>
<!-- Generator: Adobe Illustrator 26.0.3, SVG Export Plug-In . SVG Version: 6.00 Build 0)  -->
<svg version="1.1" id="Слой_1" xmlns="http://www.w3.org/2000/svg" xmlns:xlink="http://www.w3.org/1999/xlink" x="0px" y="0px"
	 viewBox="0 0 1920 1080" style="enable-background:new 0 0 1920 1080;" xml:space="preserve">
<style type="text/css">
	.st0{fill-rule:evenodd;clip-rule:evenodd;fill:#FFFFFF;}
	.st1{fill:#FFFFFF;}
</style>
<path class="st0" d="M1048.41,576.41c24.64-9.89,47.57-21.24,70.22-29.17c16,18.27,23.95,37.35,25.29,53.71
	c0.6,6.65,2.35,11.26,1.84,17.77c-0.5,8.48-2.19,17.48-3.32,26.11c-21.77,5.5-90.78,21.48-126.46,27.01
	C1055.81,642.35,1076.81,616.34,1048.41,576.41z"/>
<path class="st0" d="M1035,501.89c7.2-17.25,35.84-22.08,64.9-26.04c13.45-1.74,14.58,4.54,5.58,13.53
	c-3.65,4.15-6.32,8.29-6.38,12.73c1.08,18.53,14.24,37.25,25.36,53.29c6.33,8.75-0.15,14.61-8.46,15.77
	c-19.08,1.61-28.41,10.04-44.73,17.66c-7.73,3.92-17.17-2.04-20.64-9.65c-11.33-18.48-17.67-27.77-21.32-45.16
	C1028.01,526.77,1030.95,509.37,1035,501.89z"/>
<path class="st0" d="M822.19,639.64l26.33-5.45l7.97,38.48l-26.33,5.45L822.19,639.64z"/>
<path class="st0" d="M886.46,675.59l5.88,25.5l-71.5,16.48l-5.88-25.5L886.46,675.59z"/>
<path class="st0" d="M975.48,529.2l21.61,13.53l-44.4,70.91l-21.61-13.53L975.48,529.2z"/>
<path class="st1" d="M947.98,574.53l136.1,82.94L861,708.08L947.98,574.53z"/>
<path class="st0" d="M830.13,575.81c20.67,0,37.43,16.76,37.43,37.43c0,20.67-16.76,37.43-37.43,37.43
	c-20.67,0-37.43-16.76-37.43-37.43C792.7,592.56,809.46,575.81,830.13,575.81z"/>
<path class="st0" d="M908.38,482.67c70.24-1.96,43.59,84.22,12.64,102.33c-14.72-24.55,61.15-79.27-10.08-89.66
	c-41.66,21.26,16.49,57.82,4.09,19.49c24.59-14.77,25.57,36.06-13.42,30.19C875.72,530.33,877.58,491.97,908.38,482.67z"/>
<path class="st1" d="M862.34,553.91l-8.64-10.9l-12.65,5.79l7.7-11.58l-9.42-10.24l13.4,3.75l6.83-12.12l0.58,13.9l13.64,2.75
	l-13.04,4.84L862.34,553.91z"/>
<path class="st1" d="M886.33,486.21l-7.88-9.95l-11.54,5.29l7.03-10.57l-8.59-9.34l12.22,3.42l6.23-11.06l0.53,12.68l12.44,2.51
	l-11.9,4.42L886.33,486.21z"/>
<path class="st1" d="M937.61,449.9l-9.74-12.3l-14.27,6.54l8.69-13.07l-10.63-11.55l15.11,4.23l7.7-13.67l0.65,15.68l15.38,3.1
	l-14.71,5.47L937.61,449.9z"/>
<path class="st1" d="M1038.55,475.08l-8.25-10.42l-12.08,5.53l7.36-11.06l-9-9.78l12.8,3.58l6.52-11.58l0.55,13.28l13.02,2.62
	l-12.45,4.63L1038.55,475.08z"/>
<path class="st1" d="M965.74,481.21L956.87,470l-13,5.96l7.92-11.91l-9.68-10.52l13.77,3.85l7.02-12.46l0.59,14.29l14.02,2.82
	l-13.4,4.98L965.74,481.21z"/>
<path class="st1" d="M1058.67,429.78l-9.63-12.16l-14.1,6.46l8.59-12.92l-10.5-11.42l14.94,4.18l7.61-13.52l0.64,15.5l15.21,3.06
	l-14.54,5.4L1058.67,429.78z"/>
<path class="st1" d="M1002.14,504.9L993,493.36l-13.39,6.13l8.15-12.26l-9.97-10.84l14.18,3.96l7.23-12.83l0.61,14.71l14.43,2.91
	l-13.8,5.13L1002.14,504.9z"/>
<path class="st1" d="M888.96,589.34l-8.87-11.19l-12.98,5.95l7.91-11.89l-9.67-10.51l13.75,3.85l7.01-12.44l0.59,14.27l14,2.82
	l-13.39,4.97L888.96,589.34z"/>
<path class="st1" d="M1001.33,441.37l-9.75-12.31l-14.27,6.54l8.69-13.07l-10.63-11.55l15.12,4.23l7.7-13.68l0.65,15.69l15.39,3.1
	l-14.72,5.47L1001.33,441.37z"/>
</svg>
